<?xml version="1.0" encoding="UTF-8" standalone="no"?>
<!-- Created with Inkscape (http://www.inkscape.org/) -->

<svg
   xmlns:dc="http://purl.org/dc/elements/1.1/"
   xmlns:cc="http://creativecommons.org/ns#"
   xmlns:rdf="http://www.w3.org/1999/02/22-rdf-syntax-ns#"
   xmlns:svg="http://www.w3.org/2000/svg"
   xmlns="http://www.w3.org/2000/svg"
   xmlns:sodipodi="http://sodipodi.sourceforge.net/DTD/sodipodi-0.dtd"
   xmlns:inkscape="http://www.inkscape.org/namespaces/inkscape"
   width="117.20358mm"
   height="81.720116mm"
   viewBox="0 0 415.28829 289.55946"
   id="svg4384"
   version="1.1"
   inkscape:version="0.91 r13725"
   sodipodi:docname="sticker.svg"
   inkscape:export-filename="/home/pablo/Descargas/sticker.png"
   inkscape:export-xdpi="90"
   inkscape:export-ydpi="90">
  <defs
     id="defs4386" />
  <sodipodi:namedview
     id="base"
     pagecolor="#ffffff"
     bordercolor="#666666"
     borderopacity="1.0"
     inkscape:pageopacity="0.0"
     inkscape:pageshadow="2"
     inkscape:zoom="1.5831252"
     inkscape:cx="216.96903"
     inkscape:cy="130.56655"
     inkscape:document-units="px"
     inkscape:current-layer="layer1"
     showgrid="false"
     inkscape:window-width="1600"
     inkscape:window-height="850"
     inkscape:window-x="0"
     inkscape:window-y="31"
     inkscape:window-maximized="1"
     showguides="false"
     inkscape:guide-bbox="true"
     fit-margin-top="0"
     fit-margin-left="0"
     fit-margin-right="0"
     fit-margin-bottom="0">
    <sodipodi:guide
       position="38.981472,207.93078"
       orientation="1,0"
       id="guide4471" />
    <sodipodi:guide
       position="371.68265,122.66566"
       orientation="1,0"
       id="guide4473" />
    <sodipodi:guide
       position="-144.05733,1.4243575"
       orientation="1,0"
       id="guide3655" />
  </sodipodi:namedview>
  <metadata
     id="metadata4389">
    <rdf:RDF>
      <cc:Work
         rdf:about="">
        <dc:format>image/svg+xml</dc:format>
        <dc:type
           rdf:resource="http://purl.org/dc/dcmitype/StillImage" />
        <dc:title />
      </cc:Work>
    </rdf:RDF>
  </metadata>
  <g
     inkscape:label="Capa 1"
     inkscape:groupmode="layer"
     id="layer1"
     transform="translate(-257.49596,-336.53931)">
    <g
       id="g3441">
      <path
         sodipodi:nodetypes="cccccccc"
         inkscape:connector-curvature="0"
         id="rect3653"
         d="m 333.46397,374.87445 135.20319,-27.16147 126.9916,24.63482 c 46.13441,26.62704 65.72038,63.3757 66.35204,80.02888 l 5.05329,16.86267 -396.79386,0 0,-18.126 c 1.29421,-16.68754 32.17733,-57.28904 63.19374,-76.2389 z"
         style="opacity:1;fill:#8dc4ff;fill-opacity:1" />
      <path
         sodipodi:nodetypes="ccccccccc"
         inkscape:connector-curvature="0"
         id="rect3657"
         d="m 270.27023,468.27393 c 66.13231,0 132.26462,0 198.39693,0 66.13231,0 132.26462,0 198.39693,0 0.72015,18.13777 -1.96545,35.86116 -4.42163,53.74928 0.81252,22.04954 -29.67274,56.65836 -87.19689,80.02985 l -105.51509,18.3182 -102.35677,-14.52823 c -67.1198,-16.52952 -94.14517,-58.90748 -96.67182,-73.71323 0.63166,-17.11288 -0.63166,-37.71675 -0.63166,-63.85587 z"
         style="fill:#5a3464;fill-opacity:1" />
      <g
         id="text4210"
         style="font-style:normal;font-weight:normal;font-size:29.77115059px;line-height:125%;font-family:sans-serif;letter-spacing:0px;word-spacing:0px;fill:#ce82c8;fill-opacity:1;stroke:none;stroke-width:1px;stroke-linecap:butt;stroke-linejoin:miter;stroke-opacity:1"
         transform="matrix(3.1251901,0,0.06546339,3.1251901,35.632838,51.134631)">
        <path
           inkscape:connector-curvature="0"
           id="path4235"
           style="font-style:normal;font-variant:normal;font-weight:normal;font-stretch:ultra-condensed;font-family:'Bowlby One SC';-inkscape-font-specification:'Bowlby One SC Ultra-Condensed';letter-spacing:-1.49600029px;fill:#ce82c8;fill-opacity:1"
           d="m 78.259804,155.62738 q 0.901275,-3.3289 1.991527,-6.75956 1.090252,-3.43066 2.703825,-8.1987 1.62811,-4.78257 2.224115,-6.61419 0.17444,-0.29074 0.232587,-0.34889 l 2.442164,0 q 0.857665,0 2.529385,-0.0291 1.67172,-0.0291 2.529385,-0.0291 l 2.442165,0 q 0.21805,0 0.363417,0.0145 0.145367,0 0.348881,0.0291 0.203514,0.0291 0.319807,0.0872 0.13083,0.0582 0.218051,0.17444 0.08722,0.11629 0.08722,0.2762 l 6.701417,21.23811 q 0,0.29073 -0.21805,0.39249 -0.20352,0.11629 -0.78498,0.11629 l -1.33738,0 q -0.58147,0 -1.729866,0.0145 -1.148398,0.0145 -1.729866,0.0145 -0.174441,0 -0.712298,0.0145 -0.523321,0.0291 -0.886739,0.0145 -0.363417,0 -0.814054,-0.0436 -0.436101,-0.0291 -0.712299,-0.15991 -0.26166,-0.11629 -0.334344,-0.3198 l 0,-0.95943 q -0.145366,-0.72683 -0.508784,-1.33737 -0.363417,-0.61054 -0.770445,-0.61054 l -5.000623,0 -0.755908,3.08178 q -0.159903,0.34888 -1.62811,0.34888 l -1.162935,0 q -0.625078,0 -1.860697,0.0436 -1.235619,0.0436 -1.860697,0.0436 l -0.407027,0 q -0.232587,0 -0.741372,0.0145 -0.494247,0.0145 -0.770445,0.0145 -0.116293,-0.11629 -0.407027,-0.52332 z m 10.088466,-8.82377 0.407027,0.68322 0.959422,0 q 1.162936,0 2.122358,-0.13083 0.973958,-0.14537 0.973958,-0.45064 l -1.875233,-8.37313 q -0.261661,0 -0.712298,0.98849 -0.436101,0.9885 -0.712298,2.23865 l -1.162936,5.04424 z" />
        <path
           inkscape:connector-curvature="0"
           id="path4237"
           style="font-style:normal;font-variant:normal;font-weight:normal;font-stretch:ultra-condensed;font-family:'Bowlby One SC';-inkscape-font-specification:'Bowlby One SC Ultra-Condensed';letter-spacing:-1.49600029px;fill:#ce82c8;fill-opacity:1"
           d="m 102.84263,134.28751 q 0,-0.1599 0.17444,-0.27619 0.18898,-0.13083 0.53786,-0.18898 0.34888,-0.0727 0.69776,-0.1163 0.34888,-0.0436 0.8286,-0.0581 0.49424,-0.0145 0.81405,-0.0145 0.31981,0 0.72683,0.0145 0.42157,0 0.49425,0 l 1.62811,0 q 0.47971,0 1.33738,-0.0291 0.8722,-0.0291 1.27923,-0.0291 6.934,0 9.91402,2.38402 l 0.52332,0.46517 q 0.24713,0.23259 0.5524,0.61054 0.30527,0.36342 0.74137,1.11933 0.45064,0.74137 0.79952,1.61357 0.34888,0.8722 0.596,2.15143 0.24713,1.27923 0.24713,2.64568 0,2.12236 -0.58147,3.96852 -0.58147,1.84616 -1.59904,3.19807 -1.00303,1.35192 -2.36948,2.34041 -1.35191,0.97396 -2.93641,1.46821 -1.5845,0.47971 -3.27076,0.47971 l -0.46517,0 q -0.62508,0 -1.8607,-0.0291 -1.23562,-0.0291 -1.8607,-0.0291 -3.64871,0 -6.59966,0.11629 -0.34888,-0.69776 -0.34888,-1.27922 l 0,-20.52582 z m 8.54758,16.68813 q 0.8722,0 1.56996,-0.18898 0.69776,-0.20351 1.17748,-0.52332 0.47971,-0.31981 0.84312,-0.81405 0.36342,-0.49425 0.56694,-1.01757 0.21805,-0.52332 0.33434,-1.19201 0.13083,-0.68323 0.17444,-1.27923 0.0436,-0.61054 0.0436,-1.35191 l 0,-0.90128 q 0,-2.67475 -1.06118,-3.93944 -1.06118,-1.27923 -3.70686,-1.35192 -0.0727,0.15991 -0.23258,0.4361 -0.15991,0.2762 -0.23259,0.43611 l 0,0.69776 q 0,0.21805 -0.0145,1.13386 -0.18897,9.73958 0.53786,9.85588 z" />
        <path
           inkscape:connector-curvature="0"
           id="path4239"
           style="font-style:normal;font-variant:normal;font-weight:normal;font-stretch:ultra-condensed;font-family:'Bowlby One SC';-inkscape-font-specification:'Bowlby One SC Ultra-Condensed';letter-spacing:-1.49600029px;fill:#ce82c8;fill-opacity:1"
           d="m 154.40557,150.19066 q 0,0.26166 0.0291,0.81405 0.0291,0.53786 0.0436,1.03211 0.0145,0.49424 0.0145,1.10479 0.0145,0.596 -0.0436,1.09025 -0.0436,0.47971 -0.14537,0.91581 -0.10176,0.42156 -0.31981,0.65415 -0.20351,0.23259 -0.50878,0.23259 l -6.62873,0 q -0.69777,-0.53786 -0.69777,-4.01213 0,-1.26469 0.0145,-3.03817 0.0145,-1.78801 0.0145,-2.54392 l 0,-1.01757 q 0,-0.13083 -0.0291,-0.49425 -0.0145,-0.37795 0,-0.58146 -0.58146,2.10782 -1.42459,6.03272 -0.84313,3.92491 -1.16294,5.24775 -0.14536,0.40703 -1.33737,0.40703 l -5.14599,0 q -0.94489,0 -1.10479,-0.49425 l -1.39552,-6.07634 q -0.18898,-0.93035 -0.42157,-1.93338 -0.21805,-1.00303 -0.52332,-2.28226 -0.30527,-1.27923 -0.45064,-1.88977 -0.17444,4.65174 -0.17444,7.09391 l 0,2.55846 q 0,1.71533 0.0291,2.58753 -0.0872,0.3198 -0.31981,0.3198 l -1.36645,0 q -0.85767,0 -2.51485,0.0145 -1.65718,0.0145 -2.51485,0.0145 -0.78498,0 -0.78498,-0.26166 l 0,-21.57246 q 0,-0.13083 0.0581,-0.21805 0.0727,-0.10175 0.20351,-0.14537 0.14537,-0.0581 0.2762,-0.0872 0.13083,-0.0291 0.33434,-0.0291 0.20352,-0.0145 0.33435,-0.0145 0.13083,-0.0145 0.33434,0 0.20351,0 0.26166,0 l 1.71533,0 q 4.14296,0 5.82922,0.1163 1.70079,0.11629 2.60206,0.11629 0.34889,1.94792 1.10479,5.78561 l 1.10479,5.7856 2.32587,-11.74565 q 0,0 0.1163,0.0291 0.11629,0.0291 0.17444,0.0291 1.55542,0 4.59359,-0.0436 3.03817,-0.0436 4.5936,-0.0436 l 2.15143,0 q 0.40703,0.0436 0.40703,0.81405 0.3198,14.08606 0.34888,15.72871 z" />
        <path
           inkscape:connector-curvature="0"
           id="path4241"
           style="font-style:normal;font-variant:normal;font-weight:normal;font-stretch:ultra-condensed;font-family:'Bowlby One SC';-inkscape-font-specification:'Bowlby One SC Ultra-Condensed';letter-spacing:-1.49600029px;fill:#ce82c8;fill-opacity:1"
           d="m 155.32266,156.00533 q 0.0581,-4.23017 0.20352,-6.19263 0,-6.10541 0.17444,-12.38526 -0.0581,-1.22108 -0.0581,-1.80255 l 0,-0.4361 q -0.0582,-0.63962 -0.0582,-1.04664 0,-0.2762 0.26166,-0.49425 2.38402,0.17444 7.26835,0.17444 1.16294,0 1.59904,-0.0581 l 0,22.24114 -9.39071,0 z" />
        <path
           inkscape:connector-curvature="0"
           id="path4243"
           style="font-style:normal;font-variant:normal;font-weight:normal;font-stretch:ultra-condensed;font-family:'Bowlby One SC';-inkscape-font-specification:'Bowlby One SC Ultra-Condensed';letter-spacing:-1.49600029px;fill:#ce82c8;fill-opacity:1"
           d="m 166.06656,155.68553 0,-6.57059 q -0.0291,-3.6051 0.23259,-13.75171 l 0,-1.19201 q 0,-0.31981 0.11629,-0.37795 l 10.00125,0 q 0.14536,0 0.58147,1.10478 0.45063,1.10479 1.07571,2.8492 0.63962,1.72986 0.90128,2.38401 l 2.03513,5.32043 0,-5.64023 q 0,-0.72684 0.0291,-2.66022 0.0436,-1.94792 0.0291,-3.03817 0,-0.40703 2.32587,-0.40703 0.72684,0 1.99153,0.0291 1.26469,0.0291 1.55542,0.0291 l 1.10479,0 q 0.23259,0 0.23259,0.0872 0.0872,4.0412 0.0872,11.57121 l 0,10.08847 q -0.10176,0.37795 -0.93035,0.37795 l -0.37795,0 q -0.75591,0 -2.22412,0.0291 -1.4682,0.0291 -2.22411,0.0291 l -4.27379,0 q -0.20351,-0.0727 -0.84313,-1.83163 -0.68322,-1.9043 -2.03513,-5.5094 -1.35192,-3.6051 -1.51182,-4.02667 0,0.85767 -0.0145,2.55846 -0.0145,1.70079 -0.0145,2.55846 0,0.63961 0.0291,1.91884 0.0291,1.27923 0.0291,1.91885 l 0,1.83162 q 0,0.66869 -0.58146,0.66869 l -6.68688,0 -0.63962,-0.34888 z m 22.21207,-21.86319 0,0.0582 0,-0.0582 z" />
      </g>
      <g
         id="text4214"
         style="font-style:normal;font-weight:normal;font-size:29.77115059px;line-height:125%;font-family:sans-serif;letter-spacing:0px;word-spacing:0px;fill:#000000;fill-opacity:1;stroke:none;stroke-width:1px;stroke-linecap:butt;stroke-linejoin:miter;stroke-opacity:1"
         transform="matrix(3.1251901,0,0.06546339,3.1251901,35.632838,50.908873)">
        <path
           inkscape:connector-curvature="0"
           id="path4246"
           style="font-style:italic;font-variant:normal;font-weight:normal;font-stretch:normal;font-family:'Vampiro One';-inkscape-font-specification:'Vampiro One Italic';letter-spacing:-0.49000001px;fill:#000000;fill-opacity:1"
           d="m 85.631485,130.87117 q -1.399244,0 -2.203065,-0.2084 -0.476338,1.16108 -0.595423,2.88781 5.120638,-0.29772 9.884022,-2.29238 1.607642,-0.65497 3.0962,-1.5481 l 0.625194,3.00688 q -2.768717,1.7565 -6.549653,3.0962 -4.019106,1.42902 -7.591644,1.60765 l -3.691622,-3.42369 q 0,-4.10842 2.232836,-7.50233 1.607642,-2.35192 3.63208,-3.72139 2.05421,-1.36947 3.929792,-1.9649 l 5.031325,4.16796 q -0.744279,3.0962 -2.82826,4.49545 -2.08398,1.39924 -4.971782,1.39924 z m -0.952677,-2.8878 q 1.726727,0 3.006886,-0.95268 1.488558,-1.1313 1.488558,-3.15574 -3.006886,1.63742 -4.495444,4.10842 z" />
        <path
           inkscape:connector-curvature="0"
           id="path4248"
           style="font-style:italic;font-variant:normal;font-weight:normal;font-stretch:normal;font-family:'Vampiro One';-inkscape-font-specification:'Vampiro One Italic';letter-spacing:-0.49000001px;fill:#000000;fill-opacity:1"
           d="m 99.166953,137.65899 q -2.143522,-1.42901 -3.751165,-2.70917 -1.458786,-1.28016 -3.185513,-3.06643 l 3.066429,-2.17329 q 2.08398,2.17329 3.066428,2.91757 0.982448,0.71451 1.756498,1.22062 0.83359,-0.0893 2.70917,-0.56565 l -4.942006,-4.67408 q -0.684736,-0.7145 -1.071761,-1.28015 1.131303,-2.02444 3.900017,-4.19774 2.59009,-2.02444 4.94201,-2.70917 l 4.76339,3.84048 q -0.50611,2.02444 -2.38169,5.3588 l -3.18552,-2.38169 q 0.6252,-0.9229 1.10154,-1.99467 0.47633,-1.07176 0.56565,-1.42901 -1.66719,0.62519 -3.42368,2.26261 -0.6252,0.59542 -1.13131,1.22061 0.56565,0.86337 1.72673,1.81604 1.96489,1.69696 3.3046,2.91758 3.30459,-1.13131 5.59697,-2.32215 l 0.6252,3.00688 q -2.3817,1.69696 -6.69851,3.15575 -3.98934,1.3397 -7.353477,1.78626 z" />
        <path
           inkscape:connector-curvature="0"
           id="path4250"
           style="font-style:italic;font-variant:normal;font-weight:normal;font-stretch:normal;font-family:'Vampiro One';-inkscape-font-specification:'Vampiro One Italic';letter-spacing:-0.49000001px;fill:#000000;fill-opacity:1"
           d="m 115.20227,133.55058 q 7.29393,-0.95268 12.68251,-3.84048 l 0.65496,3.00688 q -4.58475,2.88781 -10.18173,4.19774 -1.87558,0.41679 -3.69162,0.50611 l -3.69163,-3.42369 q 0,-2.11375 0.26794,-3.27482 1.16108,-4.91224 5.68629,-7.91913 2.02444,-1.3397 4.10842,-1.99467 l 4.76339,3.54277 q -0.14886,0.68474 -0.8336,2.17329 -1.1313,2.50078 -1.78626,3.42369 l -3.75117,-2.3817 q 1.60764,-2.02443 2.02444,-3.39391 -2.85803,1.22062 -4.6443,3.9298 -1.60764,2.44123 -1.60764,5.44812 z" />
        <path
           inkscape:connector-curvature="0"
           id="path4252"
           style="font-style:italic;font-variant:normal;font-weight:normal;font-stretch:normal;font-family:'Vampiro One';-inkscape-font-specification:'Vampiro One Italic';letter-spacing:-0.49000001px;fill:#000000;fill-opacity:1"
           d="m 134.5473,134.38417 q -1.87559,1.78627 -4.82293,3.03666 l -3.95956,-3.42369 q 0.41679,-3.36414 2.08398,-6.63896 1.66718,-3.27483 4.28704,-6.8176 l 3.06643,2.35192 q -4.16796,5.62675 -5.26949,10.24128 0.0298,0 0.53588,-0.14886 0.53588,-0.17862 1.36947,-0.65496 2.11375,-1.19085 3.90002,-3.42368 2.08398,-4.22751 3.98934,-6.90691 l 3.18551,2.471 q -2.79849,4.10842 -4.55499,8.12753 l -0.11908,0.0595 q 1.90535,-0.50611 4.13819,-1.5481 2.26261,-1.04199 2.8878,-1.39924 l 0.62519,3.00688 q -1.84581,1.33971 -5.80537,3.3046 -1.60764,0.80382 -2.91757,1.28016 l -2.61986,-2.91757 z" />
        <path
           inkscape:connector-curvature="0"
           id="path4254"
           style="font-style:italic;font-variant:normal;font-weight:normal;font-stretch:normal;font-family:'Vampiro One';-inkscape-font-specification:'Vampiro One Italic';letter-spacing:-0.49000001px;fill:#000000;fill-opacity:1"
           d="m 150.59843,130.87117 q -1.39925,0 -2.20307,-0.2084 -0.47634,1.16108 -0.59542,2.88781 5.12064,-0.29772 9.88402,-2.29238 1.60764,-0.65497 3.0962,-1.5481 l 0.62519,3.00688 q -2.76871,1.7565 -6.54965,3.0962 -4.0191,1.42902 -7.59164,1.60765 l -3.69162,-3.42369 q 0,-4.10842 2.23283,-7.50233 1.60764,-2.35192 3.63208,-3.72139 2.05421,-1.36947 3.92979,-1.9649 l 5.03133,4.16796 q -0.74428,3.0962 -2.82826,4.49545 -2.08398,1.39924 -4.97178,1.39924 z m -0.95268,-2.8878 q 1.72673,0 3.00689,-0.95268 1.48855,-1.1313 1.48855,-3.15574 -3.00688,1.63742 -4.49544,4.10842 z" />
        <path
           inkscape:connector-curvature="0"
           id="path4256"
           style="font-style:italic;font-variant:normal;font-weight:normal;font-stretch:normal;font-family:'Vampiro One';-inkscape-font-specification:'Vampiro One Italic';letter-spacing:-0.49000001px;fill:#000000;fill-opacity:1"
           d="m 158.23921,133.99714 q 1.28016,-4.61453 4.55499,-10.44967 2.17329,-3.87025 4.88246,-6.87714 1.36948,-1.51833 2.82826,-2.56032 l 5.03133,3.54277 q -1.01222,8.12753 -7.38325,11.46189 -2.05421,1.07177 -4.58475,1.69696 -0.71451,1.7565 -1.10154,3.00689 3.69163,-0.50611 5.74583,-1.13131 4.01911,-1.19084 6.69851,-2.97711 l 0.6252,3.00688 q -4.37636,3.03666 -9.94357,4.22751 -1.84581,0.38702 -3.66185,0.47634 l -3.69162,-3.42369 z m 7.05576,-6.9069 q 2.70918,-1.28016 4.31682,-3.69163 1.60764,-2.41146 2.14352,-5.65652 -2.35192,2.11376 -5.03132,6.72828 -0.77405,1.30994 -1.42902,2.61987 z" />
        <path
           inkscape:connector-curvature="0"
           id="path4258"
           style="font-style:italic;font-variant:normal;font-weight:normal;font-stretch:normal;font-family:'Vampiro One';-inkscape-font-specification:'Vampiro One Italic';letter-spacing:-0.49000001px;fill:#000000;fill-opacity:1"
           d="m 182.37553,134.74142 q -2.35192,1.84581 -5.41835,2.67941 l -3.69162,-3.42369 q 0,-2.35192 0.71451,-4.61453 0.7145,-2.2626 2.11375,-4.07864 1.39924,-1.81604 3.45345,-3.00689 2.08398,-1.22062 4.79316,-1.45879 l 1.96489,3.00689 q 0.35726,-0.56565 1.51833,-1.9649 l 2.91757,2.50078 q -2.94734,3.84048 -4.88246,8.21684 l -0.0893,0.0595 q 1.72673,-0.44657 4.04888,-1.51833 2.32215,-1.10153 2.94734,-1.42901 l 0.65497,3.00688 q -1.7565,1.28016 -5.83515,3.3046 -1.60764,0.80382 -2.91757,1.28016 l -2.29238,-2.56032 z m -4.94201,-1.60764 q 3.18551,-0.86336 5.80537,-4.2275 0.77405,-1.69696 1.16108,-4.22751 -3.06643,0.29771 -5.03132,2.70918 -1.93513,2.38169 -1.93513,5.74583 z" />
      </g>
      <g
         id="text4467"
         style="font-style:normal;font-weight:normal;font-size:25.01830292px;line-height:125%;font-family:sans-serif;letter-spacing:0px;word-spacing:0px;fill:#ffffff;fill-opacity:1;stroke:none;stroke-width:1px;stroke-linecap:butt;stroke-linejoin:miter;stroke-opacity:1">
        <path
           id="path3391"
           style="font-style:normal;font-variant:normal;font-weight:normal;font-stretch:normal;font-family:'Fjalla One';-inkscape-font-specification:'Fjalla One';letter-spacing:-1.65120792px;fill:#ffffff"
           d="m 390.34399,562.67509 -1.4537,0 0,-2.19887 1.4537,0 0,-1.20938 q 0,-1.36819 0.28097,-2.22331 0.28097,-0.86733 0.76961,-1.34375 0.50085,-0.48864 1.16052,-0.65967 0.67187,-0.17102 1.44148,-0.17102 0.21989,0 0.48864,0.0244 0.28097,0.0244 0.54972,0.0855 0.28096,0.0489 0.5375,0.12216 0.26875,0.0733 0.47642,0.18324 l 0,2.17445 q -0.51307,-0.13438 -1.1483,-0.13438 -0.3054,0 -0.58637,0.0977 -0.26875,0.0977 -0.47642,0.32983 -0.20767,0.21989 -0.32983,0.59858 -0.12216,0.36648 -0.12216,0.9162 l 0,1.20938 2.33325,0 0,2.19887 -2.33325,0 0,14.62252 -3.04178,0 0,-14.62252 z" />
        <path
           id="path3393"
           style="font-style:normal;font-variant:normal;font-weight:normal;font-stretch:normal;font-family:'Fjalla One';-inkscape-font-specification:'Fjalla One';letter-spacing:-1.65120792px;fill:#ffffff"
           d="m 395.80248,555.07676 3.09064,0 0,4.48326 -0.0977,2.22331 0.0122,0.0122 q 0.20767,-0.29318 0.47642,-0.56193 0.28097,-0.26875 0.62302,-0.47642 0.35426,-0.21989 0.7696,-0.34205 0.42756,-0.12216 0.92842,-0.12216 0.25653,0 0.61079,0.0489 0.36648,0.0489 0.74518,0.24432 0.39091,0.19546 0.7696,0.58637 0.39091,0.37869 0.6841,1.05057 0.3054,0.67188 0.48864,1.67359 0.19545,1.00171 0.19545,2.43098 l 0,5.09406 q 0,1.42926 -0.19545,2.43097 -0.18324,1.00171 -0.48864,1.68581 -0.3054,0.67188 -0.69631,1.06279 -0.39091,0.39091 -0.79404,0.58636 -0.40313,0.19546 -0.78182,0.24432 -0.3787,0.0611 -0.65966,0.0611 -0.58637,0 -1.06279,-0.14659 -0.46421,-0.14659 -0.83069,-0.39091 -0.35426,-0.25654 -0.63523,-0.57415 -0.26875,-0.31762 -0.47642,-0.64745 l -0.25654,1.56365 -2.41876,0 0,-22.22085 z m 3.09064,18.81259 q 0.0977,0.23211 0.2321,0.45199 0.1466,0.21989 0.32983,0.39091 0.18324,0.15881 0.42756,0.26876 0.24432,0.0977 0.54972,0.0977 0.34205,0 0.62302,-0.12216 0.28096,-0.13437 0.48864,-0.4642 0.20767,-0.34205 0.31761,-0.94063 0.12216,-0.59859 0.12216,-1.53921 l 0,-6.43782 q 0,-0.94063 -0.12216,-1.527 -0.10994,-0.59858 -0.31761,-0.94063 -0.19546,-0.34204 -0.47643,-0.4642 -0.28096,-0.12216 -0.62301,-0.12216 -0.57415,0 -0.95285,0.34204 -0.36648,0.32984 -0.59858,0.79404 l 0,10.21255 z" />
        <path
           id="path3395"
           style="font-style:normal;font-variant:normal;font-weight:normal;font-stretch:normal;font-family:'Fjalla One';-inkscape-font-specification:'Fjalla One';letter-spacing:-1.65120792px;fill:#ffffff"
           d="m 405.74423,575.11095 q 0,-1.29489 0.51307,-1.85683 0.51307,-0.56193 1.39262,-0.56193 0.9162,0 1.41705,0.59858 0.50086,0.59858 0.50086,1.82018 0,1.12387 -0.51308,1.74688 -0.50085,0.6108 -1.41705,0.6108 -0.86733,0 -1.3804,-0.59858 -0.51307,-0.59858 -0.51307,-1.7591 z" />
        <path
           id="path3397"
           style="font-style:normal;font-variant:normal;font-weight:normal;font-stretch:normal;font-family:'Fjalla One';-inkscape-font-specification:'Fjalla One';letter-spacing:-1.65120792px;fill:#ffffff"
           d="m 410.67743,560.47622 2.39433,0 0.26875,1.79575 0,0.0122 q 0.36648,-0.57415 0.78182,-0.95284 0.41534,-0.39091 0.85512,-0.62302 0.45199,-0.2321 0.91619,-0.32983 0.47643,-0.0977 0.94063,-0.0977 0.9895,0 1.67359,0.47643 0.6841,0.47642 1.03836,1.42926 0.36648,-0.54971 0.7696,-0.91619 0.41535,-0.36648 0.85512,-0.58637 0.43978,-0.21989 0.89177,-0.3054 0.45199,-0.0977 0.9162,-0.0977 1.46591,0 2.25995,1.03836 0.80625,1.02614 0.80625,3.09064 l 0,12.88785 -3.09064,0 0,-12.77791 q 0,-0.54971 -0.0855,-0.92841 -0.0855,-0.37869 -0.25653,-0.6108 -0.17103,-0.2321 -0.43978,-0.32983 -0.26875,-0.10994 -0.64744,-0.10994 -0.42756,0 -0.85512,0.31761 -0.42756,0.3054 -0.78182,0.85512 0.0122,0.10994 0.0122,0.21989 0,0.10994 0,0.21989 l 0,13.14438 -3.09064,0 0,-12.77791 q 0,-0.54971 -0.0855,-0.92841 -0.0855,-0.37869 -0.25654,-0.6108 -0.17102,-0.2321 -0.43977,-0.32983 -0.26875,-0.10994 -0.64745,-0.10994 -0.41534,0 -0.8429,0.3054 -0.42756,0.3054 -0.7696,0.8429 l 0,13.60859 -3.09064,0 0,-16.82139 z" />
        <path
           id="path3399"
           style="font-style:normal;font-variant:normal;font-weight:normal;font-stretch:normal;font-family:'Fjalla One';-inkscape-font-specification:'Fjalla One';letter-spacing:-1.65120792px;fill:#ffffff"
           d="m 431.65019,577.48085 q -1.08722,0 -1.93012,-0.40313 -0.83069,-0.40313 -1.40484,-1.25824 -0.57415,-0.85512 -0.86733,-2.18666 -0.29319,-1.34376 -0.29319,-3.22502 l 0,-3.17615 q 0,-1.60029 0.23211,-2.73638 0.24432,-1.1483 0.62301,-1.9179 0.39091,-0.78183 0.89177,-1.23382 0.51307,-0.45199 1.05057,-0.68409 0.5375,-0.24432 1.06279,-0.3054 0.5375,-0.0733 0.98949,-0.0733 0.83069,0 1.60029,0.25654 0.76961,0.24432 1.35598,0.85512 0.58636,0.59858 0.92841,1.6125 0.35426,1.01393 0.35426,2.52871 0,0.51307 -0.0366,1.03836 -0.0244,0.52528 -0.0733,1.03835 -0.0489,0.50086 -0.13438,0.97728 -0.0733,0.47642 -0.1588,0.87955 l -5.5827,0 0,1.71024 q 0,1.09943 0.0855,1.85682 0.0855,0.74518 0.28097,1.20939 0.20767,0.45199 0.54972,0.65966 0.35426,0.19545 0.87955,0.19545 0.28096,0 0.54972,-0.10994 0.26875,-0.12216 0.4642,-0.39091 0.20767,-0.26875 0.32983,-0.70853 0.12216,-0.45199 0.12216,-1.11165 l 0,-0.52529 2.57757,0 0,0.64745 q 0,2.39433 -1.1483,3.49377 -1.13608,1.08722 -3.29831,1.08722 z m 1.71024,-10.09039 q 0.0122,-0.13438 0.0244,-0.35427 0.0122,-0.2321 0.0122,-0.47642 0.0122,-0.24432 0.0122,-0.47642 0,-0.24432 0,-0.41534 0,-1.66138 -0.39091,-2.39433 -0.39091,-0.73296 -1.16052,-0.73296 -0.40313,0 -0.70852,0.19545 -0.3054,0.18324 -0.50086,0.63523 -0.19546,0.43978 -0.29318,1.17274 -0.0977,0.73295 -0.0977,1.82018 l 0,1.02614 3.10286,0 z" />
        <path
           id="path3401"
           style="font-style:normal;font-variant:normal;font-weight:normal;font-stretch:normal;font-family:'Fjalla One';-inkscape-font-specification:'Fjalla One';letter-spacing:-1.65120792px;fill:#ffffff"
           d="m 439.58852,554.28272 2.6753,0 -3.8236,26.99729 -2.6753,0 3.8236,-26.99729 z" />
        <path
           id="path3403"
           style="font-style:normal;font-variant:normal;font-weight:normal;font-stretch:normal;font-family:'Fjalla One';-inkscape-font-specification:'Fjalla One';letter-spacing:-1.65120792px;fill:#ffffff"
           d="m 446.37855,577.48085 q -1.08723,0 -1.93013,-0.40313 -0.83068,-0.40313 -1.40483,-1.25824 -0.57415,-0.85512 -0.86734,-2.18666 -0.29318,-1.34376 -0.29318,-3.22502 l 0,-3.17615 q 0,-1.60029 0.2321,-2.73638 0.24432,-1.1483 0.62302,-1.9179 0.39091,-0.78183 0.89176,-1.23382 0.51307,-0.45199 1.05058,-0.68409 0.5375,-0.24432 1.06278,-0.3054 0.53751,-0.0733 0.9895,-0.0733 0.83068,0 1.60029,0.25654 0.76961,0.24432 1.35597,0.85512 0.58637,0.59858 0.92842,1.6125 0.35426,1.01393 0.35426,2.52871 0,0.51307 -0.0367,1.03836 -0.0244,0.52528 -0.0733,1.03835 -0.0489,0.50086 -0.13438,0.97728 -0.0733,0.47642 -0.15881,0.87955 l -5.5827,0 0,1.71024 q 0,1.09943 0.0855,1.85682 0.0855,0.74518 0.28096,1.20939 0.20768,0.45199 0.54972,0.65966 0.35427,0.19545 0.87955,0.19545 0.28097,0 0.54972,-0.10994 0.26875,-0.12216 0.46421,-0.39091 0.20767,-0.26875 0.32983,-0.70853 0.12216,-0.45199 0.12216,-1.11165 l 0,-0.52529 2.57757,0 0,0.64745 q 0,2.39433 -1.1483,3.49377 -1.13609,1.08722 -3.29831,1.08722 z m 1.71023,-10.09039 q 0.0122,-0.13438 0.0244,-0.35427 0.0122,-0.2321 0.0122,-0.47642 0.0122,-0.24432 0.0122,-0.47642 0,-0.24432 0,-0.41534 0,-1.66138 -0.39091,-2.39433 -0.39091,-0.73296 -1.16051,-0.73296 -0.40313,0 -0.70853,0.19545 -0.3054,0.18324 -0.50085,0.63523 -0.19546,0.43978 -0.29319,1.17274 -0.0977,0.73295 -0.0977,1.82018 l 0,1.02614 3.10286,0 z" />
        <path
           id="path3405"
           style="font-style:normal;font-variant:normal;font-weight:normal;font-stretch:normal;font-family:'Fjalla One';-inkscape-font-specification:'Fjalla One';letter-spacing:-1.65120792px;fill:#ffffff"
           d="m 451.29953,573.77941 q 0,-0.54972 0.0977,-1.06279 0.10995,-0.51307 0.20768,-0.81847 l 2.17444,0 q 0,0.9162 0.0855,1.53921 0.0977,0.6108 0.3054,0.97728 0.20767,0.36648 0.54972,0.52529 0.35426,0.1588 0.85512,0.1588 0.69631,0 1.01392,-0.39091 0.31762,-0.39091 0.31762,-0.90398 0,-0.26875 -0.0733,-0.51307 -0.0733,-0.24432 -0.20767,-0.48864 -0.13438,-0.25653 -0.32983,-0.51307 -0.19546,-0.25653 -0.43978,-0.56193 l -2.25995,-2.66309 q -0.43978,-0.54971 -0.85512,-1.11165 -0.40313,-0.57415 -0.72074,-1.17273 -0.3054,-0.6108 -0.50086,-1.27046 -0.18324,-0.65966 -0.18324,-1.39262 0,-0.97728 0.32984,-1.69802 0.34204,-0.72074 0.90398,-1.19717 0.57415,-0.47642 1.31932,-0.70852 0.74518,-0.23211 1.57586,-0.23211 0.9162,0 1.64916,0.21989 0.73296,0.21989 1.25824,0.65966 0.52529,0.43978 0.80626,1.09944 0.28096,0.64745 0.28096,1.51478 0,0.58637 -0.10994,1.13609 -0.0977,0.54971 -0.19546,0.94063 l -2.13779,0 q -0.0122,-0.83069 -0.0733,-1.45371 -0.0611,-0.62301 -0.2321,-1.02614 -0.15881,-0.41534 -0.45199,-0.62301 -0.28097,-0.20767 -0.74517,-0.20767 -0.40313,0 -0.67188,0.13437 -0.26875,0.12216 -0.43978,0.32983 -0.15881,0.20768 -0.2321,0.46421 -0.0611,0.25654 -0.0611,0.52529 0,0.58636 0.28097,1.08722 0.28096,0.50085 0.74517,1.08722 l 2.46763,2.89518 q 0.26875,0.32984 0.62301,0.80626 0.35426,0.46421 0.67188,1.03836 0.31761,0.56193 0.5375,1.23381 0.21989,0.67188 0.21989,1.40484 0,0.89176 -0.28097,1.62472 -0.28097,0.72074 -0.83068,1.23381 -0.54972,0.51307 -1.35598,0.79404 -0.79403,0.28097 -1.82018,0.28097 -0.8429,0 -1.58807,-0.18324 -0.74518,-0.19546 -1.29489,-0.62302 -0.54972,-0.43977 -0.86734,-1.1483 -0.31761,-0.70852 -0.31761,-1.74688 z" />
        <path
           id="path3407"
           style="font-style:normal;font-variant:normal;font-weight:normal;font-stretch:normal;font-family:'Fjalla One';-inkscape-font-specification:'Fjalla One';letter-spacing:-1.65120792px;fill:#ffffff"
           d="m 464.34413,577.48085 q -2.12558,0 -3.24945,-1.74689 -1.11165,-1.74688 -1.11165,-5.32616 l 0,-3.17615 q 0,-1.60029 0.2321,-2.73638 0.2321,-1.1483 0.6108,-1.9179 0.39091,-0.78183 0.87955,-1.23382 0.50085,-0.45199 1.02614,-0.68409 0.52528,-0.24432 1.03836,-0.3054 0.51307,-0.0733 0.94063,-0.0733 0.85511,0 1.56364,0.23211 0.70853,0.21988 1.2216,0.68409 0.51307,0.45199 0.79403,1.1483 0.28097,0.69631 0.28097,1.63694 0,0.58637 -0.0611,1.01393 -0.0489,0.41534 -0.14659,0.80625 l -2.46763,0 0,-0.56193 q 0,-1.27046 -0.3054,-1.97899 -0.29318,-0.72074 -0.97727,-0.72074 -0.3787,0 -0.65966,0.18324 -0.28097,0.17102 -0.47643,0.59858 -0.18324,0.42756 -0.28096,1.1483 -0.0855,0.72074 -0.0855,1.80796 l 0,4.77645 q 0,1.09943 0.0733,1.86904 0.0733,0.76961 0.25653,1.25825 0.18324,0.47642 0.48864,0.69631 0.3054,0.21988 0.75739,0.21988 0.23211,0 0.45199,-0.10994 0.21989,-0.12216 0.3787,-0.39091 0.17102,-0.26875 0.26875,-0.70853 0.10994,-0.45199 0.10994,-1.11165 l 0,-0.52529 2.66309,0 0,0.64745 q 0,2.39433 -1.06279,3.49377 -1.05058,1.08722 -3.15172,1.08722 z" />
        <path
           id="path3409"
           style="font-style:normal;font-variant:normal;font-weight:normal;font-stretch:normal;font-family:'Fjalla One';-inkscape-font-specification:'Fjalla One';letter-spacing:-1.65120792px;fill:#ffffff"
           d="m 469.44835,560.47622 3.09064,0 0,12.64353 q 0,1.11165 0.34205,1.55142 0.34205,0.42756 1.00171,0.42756 0.46421,0 0.90398,-0.25653 0.43978,-0.25654 0.79404,-0.73296 l 0,-13.63302 3.09064,0 0,16.82139 -2.35768,0 -0.3054,-1.79575 -0.0122,0 q -0.36648,0.57415 -0.78182,0.96506 -0.40313,0.3787 -0.85512,0.6108 -0.43977,0.21989 -0.90398,0.31762 -0.46421,0.0977 -0.92841,0.0977 -1.47813,0 -2.28439,-1.02614 -0.79404,-1.02614 -0.79404,-3.10285 l 0,-12.88785 z" />
        <path
           id="path3411"
           style="font-style:normal;font-variant:normal;font-weight:normal;font-stretch:normal;font-family:'Fjalla One';-inkscape-font-specification:'Fjalla One';letter-spacing:-1.65120792px;fill:#ffffff"
           d="m 484.28871,577.48085 q -1.08723,0 -1.93013,-0.40313 -0.83068,-0.40313 -1.40483,-1.25824 -0.57415,-0.85512 -0.86734,-2.18666 -0.29318,-1.34376 -0.29318,-3.22502 l 0,-3.17615 q 0,-1.60029 0.2321,-2.73638 0.24432,-1.1483 0.62302,-1.9179 0.39091,-0.78183 0.89176,-1.23382 0.51307,-0.45199 1.05058,-0.68409 0.5375,-0.24432 1.06278,-0.3054 0.53751,-0.0733 0.9895,-0.0733 0.83068,0 1.60029,0.25654 0.76961,0.24432 1.35597,0.85512 0.58637,0.59858 0.92842,1.6125 0.35426,1.01393 0.35426,2.52871 0,0.51307 -0.0367,1.03836 -0.0244,0.52528 -0.0733,1.03835 -0.0489,0.50086 -0.13438,0.97728 -0.0733,0.47642 -0.15881,0.87955 l -5.5827,0 0,1.71024 q 0,1.09943 0.0855,1.85682 0.0855,0.74518 0.28096,1.20939 0.20768,0.45199 0.54972,0.65966 0.35427,0.19545 0.87955,0.19545 0.28097,0 0.54972,-0.10994 0.26875,-0.12216 0.46421,-0.39091 0.20767,-0.26875 0.32983,-0.70853 0.12216,-0.45199 0.12216,-1.11165 l 0,-0.52529 2.57757,0 0,0.64745 q 0,2.39433 -1.1483,3.49377 -1.13609,1.08722 -3.29831,1.08722 z m 1.71023,-10.09039 q 0.0122,-0.13438 0.0244,-0.35427 0.0122,-0.2321 0.0122,-0.47642 0.0122,-0.24432 0.0122,-0.47642 0,-0.24432 0,-0.41534 0,-1.66138 -0.39091,-2.39433 -0.39091,-0.73296 -1.16051,-0.73296 -0.40313,0 -0.70853,0.19545 -0.3054,0.18324 -0.50085,0.63523 -0.19546,0.43978 -0.29319,1.17274 -0.0977,0.73295 -0.0977,1.82018 l 0,1.02614 3.10286,0 z" />
        <path
           id="path3413"
           style="font-style:normal;font-variant:normal;font-weight:normal;font-stretch:normal;font-family:'Fjalla One';-inkscape-font-specification:'Fjalla One';letter-spacing:-1.65120792px;fill:#ffffff"
           d="m 489.91821,555.07676 3.09064,0 0,22.22085 -3.09064,0 0,-22.22085 z" />
        <path
           id="path3415"
           style="font-style:normal;font-variant:normal;font-weight:normal;font-stretch:normal;font-family:'Fjalla One';-inkscape-font-specification:'Fjalla One';letter-spacing:-1.65120792px;fill:#ffffff"
           d="m 496.89148,577.48085 q -0.78182,0 -1.39262,-0.3054 -0.59858,-0.31762 -1.01393,-0.85512 -0.41534,-0.5375 -0.63523,-1.27046 -0.20767,-0.74517 -0.20767,-1.61251 0,-1.03836 0.25654,-1.84461 0.25653,-0.80625 0.74517,-1.4537 0.50085,-0.64745 1.23381,-1.17273 0.73296,-0.53751 1.69802,-1.01393 0.46421,-0.2321 1.03836,-0.46421 0.58637,-0.24431 1.03836,-0.41534 l 0,-2.2233 q 0,-0.48864 -0.0367,-0.90399 -0.0367,-0.42755 -0.18324,-0.73295 -0.13438,-0.31762 -0.41534,-0.48864 -0.28097,-0.18324 -0.76961,-0.18324 -0.32983,0 -0.64745,0.12216 -0.30539,0.12216 -0.54971,0.41534 -0.23211,0.29318 -0.3787,0.78182 -0.13437,0.48864 -0.13437,1.20938 l 0,0.73296 -2.35769,0 q -0.10994,-0.47642 -0.17102,-0.86733 -0.0489,-0.40313 -0.0489,-0.79404 0,-0.94063 0.31761,-1.66137 0.32983,-0.72074 0.90398,-1.20938 0.58637,-0.48864 1.39262,-0.73296 0.80626,-0.25654 1.77132,-0.25654 1.25824,0 2.08893,0.28097 0.83068,0.26875 1.31932,0.81847 0.50086,0.54972 0.69631,1.38041 0.20768,0.83068 0.20768,1.94233 l 0,12.59467 -2.29661,0 -0.21988,-1.44149 q -0.50086,0.72075 -1.34376,1.17274 -0.83069,0.45199 -1.90569,0.45199 z m 1.36819,-2.38212 q 0.39091,0 0.75739,-0.19545 0.37869,-0.20767 0.63523,-0.50086 l 0,-5.26508 q -0.24432,0.0977 -0.54972,0.2321 -0.3054,0.13438 -0.65966,0.35427 -0.32983,0.20767 -0.64745,0.50085 -0.31762,0.29319 -0.57415,0.69631 -0.24432,0.40313 -0.40313,0.9162 -0.14659,0.50085 -0.14659,1.12387 0,0.96506 0.3787,1.55143 0.37869,0.58636 1.20938,0.58636 z" />
        <path
           id="path3417"
           style="font-style:normal;font-variant:normal;font-weight:normal;font-stretch:normal;font-family:'Fjalla One';-inkscape-font-specification:'Fjalla One';letter-spacing:-1.65120792px;fill:#ffffff"
           d="m 506.52782,577.48085 q -0.78182,0 -1.39262,-0.3054 -0.59858,-0.31762 -1.01392,-0.85512 -0.41535,-0.5375 -0.63523,-1.27046 -0.20767,-0.74517 -0.20767,-1.61251 0,-1.03836 0.25653,-1.84461 0.25654,-0.80625 0.74518,-1.4537 0.50085,-0.64745 1.23381,-1.17273 0.73296,-0.53751 1.69802,-1.01393 0.4642,-0.2321 1.03835,-0.46421 0.58637,-0.24431 1.03836,-0.41534 l 0,-2.2233 q 0,-0.48864 -0.0367,-0.90399 -0.0366,-0.42755 -0.18324,-0.73295 -0.13437,-0.31762 -0.41534,-0.48864 -0.28097,-0.18324 -0.7696,-0.18324 -0.32984,0 -0.64745,0.12216 -0.3054,0.12216 -0.54972,0.41534 -0.2321,0.29318 -0.37869,0.78182 -0.13438,0.48864 -0.13438,1.20938 l 0,0.73296 -2.35768,0 q -0.10995,-0.47642 -0.17103,-0.86733 -0.0489,-0.40313 -0.0489,-0.79404 0,-0.94063 0.31762,-1.66137 0.32983,-0.72074 0.90398,-1.20938 0.58636,-0.48864 1.39262,-0.73296 0.80625,-0.25654 1.77131,-0.25654 1.25825,0 2.08893,0.28097 0.83069,0.26875 1.31933,0.81847 0.50085,0.54972 0.69631,1.38041 0.20767,0.83068 0.20767,1.94233 l 0,12.59467 -2.2966,0 -0.21989,-1.44149 q -0.50085,0.72075 -1.34376,1.17274 -0.83068,0.45199 -1.90569,0.45199 z m 1.36819,-2.38212 q 0.39091,0 0.75739,-0.19545 0.3787,-0.20767 0.63523,-0.50086 l 0,-5.26508 q -0.24432,0.0977 -0.54972,0.2321 -0.3054,0.13438 -0.65966,0.35427 -0.32983,0.20767 -0.64745,0.50085 -0.31761,0.29319 -0.57415,0.69631 -0.24432,0.40313 -0.40312,0.9162 -0.14659,0.50085 -0.14659,1.12387 0,0.96506 0.37869,1.55143 0.3787,0.58636 1.20938,0.58636 z" />
        <path
           id="path3419"
           style="font-style:normal;font-variant:normal;font-weight:normal;font-stretch:normal;font-family:'Fjalla One';-inkscape-font-specification:'Fjalla One';letter-spacing:-1.65120792px;fill:#ffffff"
           d="m 517.06815,577.49306 q -0.28097,0 -0.65966,-0.0611 -0.3787,-0.0489 -0.78182,-0.24432 -0.40313,-0.19545 -0.79404,-0.58636 -0.39091,-0.39091 -0.69631,-1.06279 -0.3054,-0.6841 -0.50086,-1.68581 -0.18324,-1.00171 -0.18324,-2.43097 l 0,-5.33838 q 0,-1.41705 0.19546,-2.39433 0.20767,-0.97728 0.5375,-1.61251 0.32983,-0.64745 0.73296,-1.00171 0.41534,-0.36648 0.81847,-0.5375 0.41534,-0.17102 0.78182,-0.20767 0.3787,-0.0367 0.62302,-0.0367 0.45199,0 0.85511,0.12216 0.40313,0.12216 0.73296,0.32983 0.32983,0.19546 0.58637,0.45199 0.25653,0.24432 0.42756,0.50086 l 0.0122,-0.0122 -0.0977,-2.12558 0,-4.48326 3.07842,0 0,22.22085 -2.40655,0 -0.26875,-1.56365 q -0.20767,0.32983 -0.47642,0.64745 -0.26875,0.31761 -0.63523,0.57415 -0.36648,0.24432 -0.83069,0.39091 -0.4642,0.14659 -1.05057,0.14659 z m 1.05057,-2.39433 q 0.3054,0 0.53751,-0.0977 0.24432,-0.10995 0.42755,-0.26876 0.19546,-0.17102 0.32984,-0.39091 0.14659,-0.21988 0.24432,-0.45199 l 0,-10.11482 q -0.23211,-0.51307 -0.62302,-0.86733 -0.37869,-0.36648 -0.92841,-0.36648 -0.34205,0 -0.62302,0.12216 -0.28096,0.12216 -0.48864,0.4642 -0.20767,0.32984 -0.32983,0.92842 -0.10994,0.58636 -0.10994,1.52699 l 0,6.45004 q 0,0.94062 0.10994,1.53921 0.12216,0.59858 0.32983,0.94063 0.20768,0.32983 0.48864,0.4642 0.29319,0.12216 0.63523,0.12216 z" />
        <path
           id="path3421"
           style="font-style:normal;font-variant:normal;font-weight:normal;font-stretch:normal;font-family:'Fjalla One';-inkscape-font-specification:'Fjalla One';letter-spacing:-1.65120792px;fill:#ffffff"
           d="m 524.26131,560.47622 2.39433,0 0.26875,1.79575 0,0.0122 q 0.36648,-0.57415 0.78182,-0.95284 0.41534,-0.39091 0.85512,-0.62302 0.45199,-0.2321 0.9162,-0.32983 0.47642,-0.0977 0.94063,-0.0977 0.98949,0 1.67358,0.47643 0.6841,0.47642 1.03836,1.42926 0.36648,-0.54971 0.76961,-0.91619 0.41534,-0.36648 0.85512,-0.58637 0.43977,-0.21989 0.89176,-0.3054 0.45199,-0.0977 0.9162,-0.0977 1.46592,0 2.25995,1.03836 0.80626,1.02614 0.80626,3.09064 l 0,12.88785 -3.09064,0 0,-12.77791 q 0,-0.54971 -0.0855,-0.92841 -0.0855,-0.37869 -0.25654,-0.6108 -0.17102,-0.2321 -0.43978,-0.32983 -0.26875,-0.10994 -0.64744,-0.10994 -0.42756,0 -0.85512,0.31761 -0.42756,0.3054 -0.78182,0.85512 0.0122,0.10994 0.0122,0.21989 0,0.10994 0,0.21989 l 0,13.14438 -3.09064,0 0,-12.77791 q 0,-0.54971 -0.0855,-0.92841 -0.0855,-0.37869 -0.25653,-0.6108 -0.17103,-0.2321 -0.43978,-0.32983 -0.26875,-0.10994 -0.64744,-0.10994 -0.41535,0 -0.84291,0.3054 -0.42755,0.3054 -0.7696,0.8429 l 0,13.60859 -3.09064,0 0,-16.82139 z" />
        <path
           id="path3423"
           style="font-style:normal;font-variant:normal;font-weight:normal;font-stretch:normal;font-family:'Fjalla One';-inkscape-font-specification:'Fjalla One';letter-spacing:-1.65120792px;fill:#ffffff"
           d="m 542.82752,558.06967 q -0.85512,0 -1.35597,-0.51307 -0.48864,-0.51307 -0.48864,-1.50256 0,-0.54972 0.12216,-0.9162 0.13437,-0.37869 0.36648,-0.59858 0.24431,-0.2321 0.58636,-0.32983 0.34205,-0.10995 0.78182,-0.10995 0.9162,0 1.39262,0.46421 0.47643,0.46421 0.47643,1.49035 0,0.95284 -0.48864,1.49035 -0.47642,0.52528 -1.39262,0.52528 z m -1.60029,2.40655 3.09064,0 0,16.82139 -3.09064,0 0,-16.82139 z" />
        <path
           id="path3425"
           style="font-style:normal;font-variant:normal;font-weight:normal;font-stretch:normal;font-family:'Fjalla One';-inkscape-font-specification:'Fjalla One';letter-spacing:-1.65120792px;fill:#ffffff"
           d="m 545.87946,560.47622 2.38211,0 0.28097,1.79575 0,0.0122 q 0.36648,-0.57415 0.78182,-0.95284 0.42756,-0.39091 0.87955,-0.62302 0.45199,-0.2321 0.9162,-0.32983 0.47642,-0.0977 0.94063,-0.0977 1.47813,0 2.27217,1.03836 0.80625,1.02614 0.80625,3.09064 l 0,12.88785 -3.09064,0 0,-12.77791 q 0,-1.11165 -0.34205,-1.53921 -0.34204,-0.43977 -1.0017,-0.43977 -0.46421,0 -0.92842,0.3054 -0.45199,0.3054 -0.80625,0.8429 l 0,13.60859 -3.09064,0 0,-16.82139 z" />
      </g>
      <path
         transform="translate(-4.0198723,0)"
         d="m 457.125,336.58594 0.0937,0.002 c -2.58654,-0.0391 -5.13226,0.004 -7.64063,0.0527 a 4.02331,4.02331 0 0 0 -0.006,0 c -45.3057,0.93901 -93.14327,6.81794 -133.16211,31.53711 a 4.02331,4.02331 0 0 0 -0.0742,0.0449 c -29.23417,18.93654 -49.10224,51.09079 -52.78321,85.76757 -4.40117,31.94486 -2.23626,66.12637 12.10547,95.93555 a 4.02331,4.02331 0 0 0 0.0234,0.0469 c 13.71053,27.56479 38.85046,48.0262 67.32422,58.46875 48.50338,19.4199 101.26852,17.99534 151.49219,17.3457 a 4.02331,4.02331 0 0 0 0.0723,-0.002 c 43.91128,-1.35565 90.29374,-8.07151 128.38086,-33.19141 29.95204,-19.22104 48.89651,-52.56208 52.65039,-87.51953 a 4.02331,4.02331 0 0 0 0.004,-0.041 C 678.5582,474.53796 676.7595,442.02279 662.16992,413.71094 646.3499,381.03885 613.98416,360.58219 580.88086,350.31055 540.66159,337.40212 498.35176,336.25232 457.125,336.58594 Z m 11.94922,27.04492 c 46.97465,0.44586 95.63046,3.68532 136.19336,27.54883 22.53553,13.57357 37.94076,37.72741 41.84765,63.73242 a 4.02331,4.02331 0 0 0 0.0137,0.0879 c 4.81663,27.81265 3.11599,57.51176 -9.84766,82.30273 a 4.02331,4.02331 0 0 0 -0.0176,0.0312 c -9.68761,18.93061 -26.97909,33.68419 -46.73828,41.9629 a 4.02331,4.02331 0 0 0 -0.0898,0.0391 c -42.01411,18.82278 -89.60689,20.11114 -135.81446,19.77734 -40.75316,-0.75916 -82.44887,-4.86873 -118.12304,-24.13672 -21.39339,-11.95273 -38.29817,-32.93047 -43.47071,-56.84375 a 4.02331,4.02331 0 0 0 -0.0234,-0.10351 c -6.43209,-26.37709 -5.73174,-54.87949 2.41211,-80.54102 7.86604,-23.08512 25.2875,-42.60912 47.42968,-52.51758 a 4.02331,4.02331 0 0 0 0.13672,-0.0645 c 38.36765,-18.91275 83.03948,-20.77431 126.0918,-21.27539 z"
         id="path3665"
         style="fill:#bd00bd;fill-opacity:1"
         inkscape:original="M 457.1582 340.60938 C 454.6569 340.57157 452.15707 340.61331 449.65625 340.66211 C 404.64324 341.59505 357.56114 347.48648 318.52344 371.59961 C 290.33209 389.86066 271.08847 421.01332 267.54883 454.44336 C 263.20784 485.85205 265.38157 519.28722 279.2832 548.18164 C 292.48041 574.7144 316.82661 594.57137 344.44336 604.68555 C 391.95896 623.7277 444.16745 622.41401 494.44531 621.76367 C 538.0365 620.41791 583.64478 613.70807 620.75195 589.22852 C 649.58361 570.7398 667.97139 538.4499 671.60156 504.64453 C 674.51436 474.56167 672.66964 442.82382 658.57031 415.5 C 643.41061 384.15619 612.06097 364.194 579.67969 354.14844 C 540.1701 341.46192 498.2955 340.27649 457.1582 340.60938 z M 469.0625 359.60742 C 516.21255 360.05302 565.67769 363.21122 607.32812 387.72266 C 630.97834 401.96097 647.0104 427.13492 651.09375 454.31445 C 656.0192 482.75543 654.35065 513.3399 640.8457 539.16602 C 630.66267 559.06473 612.63546 574.39552 592.08008 583.00781 C 549.09832 602.26411 500.88811 603.47122 454.58984 603.13672 C 413.59993 602.3755 371.19479 598.29766 334.56445 578.50586 C 312.20148 566.02205 294.54837 544.19079 289.0957 518.98242 C 282.48677 491.88013 283.19845 462.65384 291.59375 436.22852 C 299.8138 412.07031 317.97391 391.69372 341.20312 381.29883 C 380.59186 361.88275 425.9219 360.1088 469.0625 359.60742 z "
         inkscape:radius="4.0229077"
         sodipodi:type="inkscape:offset" />
    </g>
  </g>
</svg>
